<svg width="287" height="117" viewBox="0 0 287 117" fill="none" xmlns="http://www.w3.org/2000/svg">
<path opacity="0.8" d="M0.500061 26.1C0.500061 17.1392 0.500061 12.6587 2.24396 9.23615C3.77793 6.22556 6.22562 3.77787 9.23621 2.2439C12.6588 0.5 17.1392 0.5 26.1001 0.5L260.9 0.5C269.861 0.5 274.341 0.5 277.764 2.2439C280.774 3.77787 283.222 6.22556 284.756 9.23615C286.5 12.6587 286.5 17.1392 286.5 26.1V90.9C286.5 99.8608 286.5 104.341 284.756 107.764C283.222 110.774 280.774 113.222 277.764 114.756C274.341 116.5 269.861 116.5 260.9 116.5L26.1001 116.5C17.1392 116.5 12.6588 116.5 9.23621 114.756C6.22562 113.222 3.77793 110.774 2.24396 107.764C0.500061 104.341 0.500061 99.8608 0.500061 90.9L0.500061 26.1Z" fill="#191B20"/>
</svg>
