<svg width="286" height="116" viewBox="0 0 286 116" fill="none" xmlns="http://www.w3.org/2000/svg">
<path opacity="0.8" d="M0 25.6C0 16.6392 0 12.1587 1.7439 8.73615C3.27787 5.72556 5.72556 3.27787 8.73615 1.7439C12.1587 0 16.6392 0 25.6 0L260.4 0C269.361 0 273.841 0 277.264 1.7439C280.274 3.27787 282.722 5.72556 284.256 8.73615C286 12.1587 286 16.6392 286 25.6V90.4C286 99.3608 286 103.841 284.256 107.264C282.722 110.274 280.274 112.722 277.264 114.256C273.841 116 269.361 116 260.4 116L25.6 116C16.6392 116 12.1587 116 8.73615 114.256C5.72556 112.722 3.27787 110.274 1.7439 107.264C0 103.841 0 99.3608 0 90.4L0 25.6Z" fill="#191B20"/>
</svg>
