<svg width="20" height="19" viewBox="0 0 20 19" fill="none" xmlns="http://www.w3.org/2000/svg">
<path fill-rule="evenodd" clip-rule="evenodd" d="M13.6289 1.30081L16.5187 1.30081C17.7143 1.30081 18.6842 2.22724 18.6842 3.37012V6.12948C18.6842 7.2715 17.7143 8.19879 16.5187 8.19879H13.6289C12.4324 8.19879 11.4625 7.2715 11.4625 6.12948V3.37012C11.4625 2.22724 12.4324 1.30081 13.6289 1.30081Z" stroke="#808191" stroke-width="1.5" stroke-linecap="round" stroke-linejoin="round"/>
<path fill-rule="evenodd" clip-rule="evenodd" d="M3.15823 1.30081L6.04707 1.30081C7.24358 1.30081 8.21348 2.22724 8.21348 3.37012V6.12948C8.21348 7.2715 7.24358 8.19879 6.04707 8.19879H3.15823C1.96172 8.19879 0.991821 7.2715 0.991821 6.12948V3.37012C0.991821 2.22724 1.96172 1.30081 3.15823 1.30081Z" stroke="#808191" stroke-width="1.5" stroke-linecap="round" stroke-linejoin="round"/>
<path fill-rule="evenodd" clip-rule="evenodd" d="M3.15829 11.1573H6.04713C7.24364 11.1573 8.21354 12.0837 8.21354 13.2275V15.986C8.21354 17.1289 7.24364 18.0553 6.04713 18.0553H3.15829C1.96178 18.0553 0.991882 17.1289 0.991882 15.986V13.2275C0.991882 12.0837 1.96178 11.1573 3.15829 11.1573Z" stroke="#808191" stroke-width="1.5" stroke-linecap="round" stroke-linejoin="round"/>
<path fill-rule="evenodd" clip-rule="evenodd" d="M13.6292 11.1573H16.519C17.7146 11.1573 18.6845 12.0837 18.6845 13.2275V15.986C18.6845 17.1289 17.7146 18.0553 16.519 18.0553H13.6292C12.4327 18.0553 11.4628 17.1289 11.4628 15.986V13.2275C11.4628 12.0837 12.4327 11.1573 13.6292 11.1573Z" stroke="#808191" stroke-width="1.5" stroke-linecap="round" stroke-linejoin="round"/>
</svg>
