<svg width="16" height="18" viewBox="0 0 16 18" fill="none" xmlns="http://www.w3.org/2000/svg">
<path d="M13.1515 5.07825C14.2671 5.07825 15.1715 4.30665 15.1715 3.35485C15.1715 2.40305 14.2671 1.63147 13.1515 1.63147C12.0359 1.63147 11.1315 2.40305 11.1315 3.35485C11.1315 4.30665 12.0359 5.07825 13.1515 5.07825Z" stroke="#808191" stroke-width="1.5" stroke-linecap="round" stroke-linejoin="round"/>
<path d="M3.07182 11.067C4.22057 11.067 5.15182 10.2954 5.15182 9.34364C5.15182 8.39185 4.22057 7.62027 3.07182 7.62027C1.92306 7.62027 0.991821 8.39185 0.991821 9.34364C0.991821 10.2954 1.92306 11.067 3.07182 11.067Z" stroke="#808191" stroke-width="1.5" stroke-linecap="round" stroke-linejoin="round"/>
<path d="M13.1515 17.0558C14.2671 17.0558 15.1715 16.2842 15.1715 15.3324C15.1715 14.3806 14.2671 13.609 13.1515 13.609C12.0359 13.609 11.1315 14.3806 11.1315 15.3324C11.1315 16.2842 12.0359 17.0558 13.1515 17.0558Z" stroke="#808191" stroke-width="1.5" stroke-linecap="round" stroke-linejoin="round"/>
<path d="M5.31213 8.01239L10.9121 4.68506" stroke="#808191" stroke-width="1.5" stroke-linecap="round" stroke-linejoin="round"/>
<path d="M10.9121 14.0011L5.31213 10.6738" stroke="#808191" stroke-width="1.5" stroke-linecap="round" stroke-linejoin="round"/>
</svg>
