<svg width="21" height="20" viewBox="0 0 21 20" fill="none" xmlns="http://www.w3.org/2000/svg">
<path d="M4.04181 10.3486V10.8486H4.54181H5.84183C6.00171 10.8486 6.09183 10.972 6.09183 11.0588V16.6648C6.09183 16.7516 6.00171 16.875 5.84183 16.875H4.54181H4.04181V17.375V18.6723C4.04181 18.7591 3.95169 18.8825 3.79181 18.8825C3.63192 18.8825 3.54181 18.7591 3.54181 18.6723V17.375V16.875H3.04181H1.74182C1.58194 16.875 1.49182 16.7516 1.49182 16.6648L1.49182 11.0588C1.49182 10.972 1.58194 10.8486 1.74182 10.8486H3.04181H3.54181V10.3486V7.85808C3.54181 7.77129 3.63192 7.64786 3.79181 7.64786C3.95169 7.64786 4.04181 7.77129 4.04181 7.85808V10.3486Z" stroke="#808191"/>
<path d="M11.2621 4.90245V5.40245H11.7621H13.0121C13.172 5.40245 13.2621 5.52588 13.2621 5.61267V14.7224C13.2621 14.8092 13.172 14.9326 13.0121 14.9326H11.7721H11.2721V15.4326V16.7299C11.2721 16.8167 11.182 16.9402 11.0221 16.9402C10.8622 16.9402 10.7721 16.8167 10.7721 16.7299V15.4326V14.9326H10.2721H9.02209C8.86221 14.9326 8.77209 14.8092 8.77209 14.7224V5.61267C8.77209 5.52588 8.86221 5.40245 9.02209 5.40245H10.2621H10.7621V4.90245V1.98582C10.7621 1.89904 10.8522 1.7756 11.0121 1.7756C11.172 1.7756 11.2621 1.89904 11.2621 1.98582V4.90245Z" stroke="#808191"/>
<path d="M18.4422 2.34674V2.84674H18.9422H20.2422C20.4021 2.84674 20.4922 2.97017 20.4922 3.05695V11.9962C20.4922 12.083 20.4021 12.2064 20.2422 12.2064H18.9422H18.4422V12.7064V14.7234C18.4422 14.8102 18.3521 14.9337 18.1922 14.9337C18.0323 14.9337 17.9422 14.8102 17.9422 14.7234V12.7064V12.2064H17.4422H16.1422C15.9823 12.2064 15.8922 12.083 15.8922 11.9962V3.05695C15.8922 2.97017 15.9823 2.84674 16.1422 2.84674H17.4422H17.9422V2.34674V1.15358C17.9422 1.06679 18.0323 0.943359 18.1922 0.943359C18.3521 0.943359 18.4422 1.06679 18.4422 1.15358V2.34674Z" stroke="#808191"/>
</svg>
