<svg width="21" height="19" viewBox="0 0 21 19" fill="none" xmlns="http://www.w3.org/2000/svg">
<path d="M13.3947 7.73942C13.3947 8.60598 12.3326 9.3797 10.7148 9.8594C9.74578 10.118 8.74701 10.2636 7.74071 10.2927C7.55587 10.3081 7.36995 10.3081 7.18511 10.2927C3.76981 10.2927 0.991821 9.13211 0.991821 7.70847C0.991821 6.28484 3.76981 5.12427 7.18511 5.12427H7.74071C8.01851 5.12427 8.27997 5.12427 8.54142 5.12427C10.0012 5.24113 11.4009 5.72749 12.594 6.53243C12.8124 6.66607 12.9973 6.84337 13.1356 7.05189C13.274 7.26041 13.3624 7.49508 13.3947 7.73942V7.73942Z" stroke="#808191" stroke-width="1.5" stroke-linecap="round" stroke-linejoin="round"/>
<path d="M13.3949 7.73764V11.436C13.3949 12.38 12.202 13.1846 10.4045 13.6334C9.33718 13.8948 8.23872 14.0248 7.13628 14.0202C4.30927 14.0202 1.92346 13.231 1.18811 12.1633" stroke="#808191" stroke-width="1.5" stroke-linecap="round" stroke-linejoin="round"/>
<path d="M13.3947 11.4367V15.2898C13.3947 16.7289 10.6167 17.874 7.18511 17.874C3.75347 17.874 0.991821 16.7289 0.991821 15.2898" stroke="#808191" stroke-width="1.5" stroke-linecap="round" stroke-linejoin="round"/>
<path d="M8.10035 4.82975C7.88134 4.58721 7.75473 4.28203 7.74084 3.96318C7.74084 2.53954 10.5188 1.37897 13.9505 1.37897C17.3821 1.37897 20.1438 2.53954 20.1438 3.96318C20.1438 5.38683 17.3658 6.53193 13.9505 6.53193C13.4987 6.55548 13.0459 6.55548 12.5942 6.53193" stroke="#808191" stroke-width="1.5" stroke-linecap="round" stroke-linejoin="round"/>
<path d="M13.3951 14.0831H13.9507C17.366 14.0831 20.144 12.938 20.144 11.5143" stroke="#808191" stroke-width="1.5" stroke-linecap="round" stroke-linejoin="round"/>
<path d="M13.3951 10.2305H13.9507C17.366 10.2305 20.144 9.06996 20.144 7.6618" stroke="#808191" stroke-width="1.5" stroke-linecap="round" stroke-linejoin="round"/>
<path d="M20.1432 11.5142V7.66111V3.96274" stroke="#808191" stroke-width="1.5" stroke-linecap="round" stroke-linejoin="round"/>
<path d="M0.991821 15.2891L0.991821 7.73764" stroke="#808191" stroke-width="1.5" stroke-linecap="round" stroke-linejoin="round"/>
</svg>
