<svg width="21" height="19" viewBox="0 0 21 19" fill="none" xmlns="http://www.w3.org/2000/svg">
<path d="M4.86771 9.87625H3.56769V7.42159C3.56769 7.03892 3.22769 6.72159 2.81769 6.72159C2.40769 6.72159 2.06769 7.03892 2.06769 7.42159V9.87625H0.7677C0.3577 9.87625 0.0177002 10.1936 0.0177002 10.5763L0.0177002 16.1016C0.0177002 16.4843 0.3577 16.8016 0.7677 16.8016H2.06769V18.0803C2.06769 18.4629 2.40769 18.7803 2.81769 18.7803C3.22769 18.7803 3.56769 18.4629 3.56769 18.0803V16.8016H4.86771C5.27771 16.8016 5.61771 16.4843 5.61771 16.1016V10.5763C5.61771 10.1936 5.27771 9.87625 4.86771 9.87625Z" fill="white"/>
<path d="M12.038 4.5085H10.788V1.63384C10.788 1.25117 10.448 0.933838 10.038 0.933838C9.62796 0.933838 9.28796 1.25117 9.28796 1.63384V4.5085H8.04797C7.63797 4.5085 7.29797 4.82584 7.29797 5.2085V14.1872C7.29797 14.5698 7.63797 14.8872 8.04797 14.8872H9.29797V16.1658C9.29797 16.5485 9.63797 16.8658 10.048 16.8658C10.458 16.8658 10.798 16.5485 10.798 16.1658V14.8872H12.038C12.448 14.8872 12.788 14.5698 12.788 14.1872V5.2085C12.788 4.82584 12.448 4.5085 12.038 4.5085Z" fill="white"/>
<path d="M19.2681 1.98953L17.9681 1.98953V0.813525C17.9681 0.430859 17.6281 0.113525 17.2181 0.113525C16.8081 0.113525 16.4681 0.430859 16.4681 0.813525V1.98953H15.1681C14.7581 1.98953 14.4181 2.30686 14.4181 2.68953V11.5002C14.4181 11.8829 14.7581 12.2002 15.1681 12.2002H16.4681V14.1882C16.4681 14.5709 16.8081 14.8882 17.2181 14.8882C17.6281 14.8882 17.9681 14.5709 17.9681 14.1882V12.2002H19.2681C19.6781 12.2002 20.0181 11.8829 20.0181 11.5002V2.68953C20.0181 2.30686 19.6781 1.98953 19.2681 1.98953Z" fill="white"/>
</svg>
