<svg width="30" height="30" viewBox="0 0 30 30" fill="none" xmlns="http://www.w3.org/2000/svg">
<circle cx="15.0001" cy="15" r="15" fill="#353945"/>
<path d="M20.219 6.99998C19.8778 6.99998 19.5366 7.13028 19.2763 7.39061L17.6669 8.99998L21.0002 12.3333L22.6096 10.7239C23.1303 10.2033 23.1303 9.35919 22.6096 8.83853L21.1617 7.39061C20.9014 7.13028 20.5601 6.99998 20.219 6.99998ZM16.3335 10.3333L8.50664 18.1601C8.50664 18.1601 9.11849 18.1053 9.34649 18.3333C9.5745 18.5613 9.38681 20.0533 9.66681 20.3333C9.94681 20.6133 11.4294 20.4162 11.6421 20.6289C11.8548 20.8416 11.84 21.4935 11.84 21.4935L19.6669 13.6667L16.3335 10.3333ZM7.66679 20.3333L7.03788 22.1146C7.01316 22.1849 7.0004 22.2588 7.00012 22.3333C7.00012 22.5101 7.07036 22.6797 7.19539 22.8047C7.32041 22.9297 7.48998 23 7.66679 23C7.74131 22.9997 7.81525 22.9869 7.88555 22.9622C7.88772 22.9614 7.88989 22.9605 7.89206 22.9596L7.90898 22.9544L7.91289 22.9518L9.66681 22.3333L8.6668 21.3333L7.66679 20.3333Z" fill="#B0B1C8"/>
</svg>
