<svg width="21" height="20" viewBox="0 0 21 20" fill="none" xmlns="http://www.w3.org/2000/svg">
<path d="M10.4884 15.7327L10.4884 5.40222H11.1872V15.7327H10.4884ZM12.6745 8.60627C12.629 8.22426 12.4415 7.92834 12.112 7.7185C11.7824 7.50597 11.3676 7.39971 10.8676 7.39971C10.5097 7.39971 10.2 7.45351 9.93865 7.56112C9.67729 7.66604 9.47417 7.81131 9.32928 7.99694C9.18723 8.17987 9.11621 8.38837 9.11621 8.62242C9.11621 8.8188 9.16451 8.98828 9.2611 9.13087C9.36053 9.27345 9.48979 9.39316 9.64888 9.49001C9.81081 9.58417 9.98411 9.66353 10.1688 9.7281C10.3534 9.78997 10.531 9.84108 10.7014 9.88144L11.5537 10.0913C11.8321 10.1558 12.1176 10.2433 12.4102 10.3536C12.7029 10.4639 12.9742 10.6091 13.2242 10.7894C13.4742 10.9696 13.6759 11.1929 13.8293 11.4593C13.9855 11.7256 14.0637 12.0444 14.0637 12.4156C14.0637 12.8837 13.9358 13.2994 13.6801 13.6625C13.4273 14.0257 13.0594 14.3122 12.5764 14.5221C12.0963 14.7319 11.5154 14.8368 10.8335 14.8368C10.1801 14.8368 9.61479 14.7386 9.13752 14.5422C8.66025 14.3459 8.28667 14.0674 8.01678 13.7069C7.74689 13.3438 7.59775 12.9133 7.56934 12.4156H8.89036C8.91593 12.7142 9.0182 12.9631 9.19718 13.1622C9.379 13.3585 9.61053 13.5052 9.89178 13.602C10.1759 13.6962 10.4869 13.7432 10.825 13.7432C11.1972 13.7432 11.5281 13.6881 11.8179 13.5778C12.1105 13.4648 12.3406 13.3088 12.5083 13.1097C12.6759 12.9079 12.7597 12.6725 12.7597 12.4035C12.7597 12.1587 12.6858 11.9583 12.5381 11.8023C12.3932 11.6462 12.1958 11.5171 11.9458 11.4149C11.6986 11.3126 11.4188 11.2225 11.1063 11.1445L10.075 10.8782C9.37615 10.6979 8.82218 10.4329 8.41309 10.0832C8.00684 9.73348 7.80371 9.27076 7.80371 8.69505C7.80371 8.21888 7.94007 7.80324 8.2128 7.44813C8.48553 7.09302 8.85485 6.81728 9.32076 6.62089C9.78667 6.42182 10.3122 6.32228 10.8975 6.32228C11.4884 6.32228 12.0097 6.42047 12.4614 6.61686C12.9159 6.81324 13.2739 7.08361 13.5352 7.42796C13.7966 7.76961 13.933 8.16239 13.9443 8.60627H12.6745Z" fill="#808191"/>
<path d="M4.77804 4.491C5.06962 4.491 5.36064 4.48632 5.65167 4.49204C6.03384 4.49931 6.2716 4.71711 6.26831 5.04665C6.26502 5.37048 6.01737 5.59191 5.63904 5.59399C4.88841 5.59763 4.13779 5.59815 3.38716 5.59399C3.00499 5.59191 2.76283 5.37828 2.75734 5.01547C2.74636 4.28776 2.74636 3.56005 2.75844 2.83235C2.76393 2.49552 3.02311 2.2663 3.34873 2.26838C3.6738 2.27046 3.9176 2.50124 3.93297 2.83911C3.94395 3.07873 3.93517 3.31991 3.93517 3.62555C4.05927 3.51743 4.13504 3.4483 4.21356 3.38281C7.08593 0.991773 10.3877 0.250034 14.0178 1.35874C17.6265 2.46122 19.8537 4.87616 20.7031 8.38058C21.1512 10.2295 20.9442 12.0456 20.2112 13.8087C20.075 14.1362 19.8443 14.2901 19.5577 14.2542C19.1514 14.2033 18.9405 13.8436 19.1031 13.4527C19.4567 12.6002 19.6697 11.7213 19.7329 10.8054C20.0019 6.88359 17.2284 3.22843 13.187 2.27565C10.0928 1.54639 7.33961 2.22887 4.9565 4.2389C4.88237 4.30127 4.79232 4.3465 4.7094 4.40003C4.73247 4.43018 4.75498 4.46033 4.77804 4.491Z" fill="#808191"/>
<path d="M17.1528 16.1366C16.8832 16.1366 16.613 16.1386 16.3434 16.1361C15.9222 16.1319 15.6576 15.9209 15.651 15.5877C15.6444 15.243 15.9134 15.0201 16.3489 15.0185C17.0539 15.0159 17.7584 15.0154 18.4635 15.0185C18.9467 15.0206 19.1652 15.2306 19.1658 15.688C19.1669 16.3637 19.168 17.0394 19.1652 17.7152C19.1641 18.1092 18.9324 18.3498 18.5673 18.3441C18.2131 18.3384 18.0039 18.1092 17.9989 17.7173C17.9962 17.4948 17.9984 17.2718 17.9984 16.9989C17.9001 17.0769 17.8403 17.1221 17.7831 17.1699C14.8784 19.5989 11.5393 20.3698 7.86084 19.2221C4.15879 18.0671 1.93657 15.5518 1.16947 11.9356C0.798823 10.1896 1.02176 8.47016 1.71143 6.81047C1.8542 6.46689 2.07384 6.32862 2.39287 6.36968C2.7756 6.41958 2.9568 6.77616 2.8316 7.16341C2.63722 7.76585 2.40934 8.3662 2.30007 8.98372C1.57635 13.0922 4.21589 17.1148 8.44454 18.262C11.626 19.1254 14.4836 18.4637 16.9661 16.3819C17.0391 16.3206 17.1286 16.2774 17.2104 16.226C17.1912 16.1963 17.172 16.1667 17.1528 16.1366Z" fill="#808191"/>
<rect x="10.5065" y="5.97818" width="0.71814" height="9.34189" fill="#808191"/>
</svg>
