<svg width="17" height="18" viewBox="0 0 17 18" fill="none" xmlns="http://www.w3.org/2000/svg">
<path d="M3.35892 10.8199C4.50768 10.8199 5.43893 10.0051 5.43893 8.99998C5.43893 7.99486 4.50768 7.18005 3.35892 7.18005C2.21017 7.18005 1.27893 7.99486 1.27893 8.99998C1.27893 10.0051 2.21017 10.8199 3.35892 10.8199Z" fill="#6D6D6D" stroke="#7E7E7E" stroke-width="1.5" stroke-linecap="round" stroke-linejoin="round"/>
<path d="M13.4389 4.49522C14.5545 4.49522 15.4589 3.6804 15.4589 2.67529C15.4589 1.67017 14.5545 0.855377 13.4389 0.855377C12.3233 0.855377 11.4189 1.67017 11.4189 2.67529C11.4189 3.6804 12.3233 4.49522 13.4389 4.49522Z" fill="#6D6D6D" stroke="#7E7E7E" stroke-width="1.5" stroke-linecap="round" stroke-linejoin="round"/>
<path d="M13.4389 17.1446C14.5545 17.1446 15.4589 16.3298 15.4589 15.3246C15.4589 14.3195 14.5545 13.5047 13.4389 13.5047C12.3233 13.5047 11.4189 14.3195 11.4189 15.3246C11.4189 16.3298 12.3233 17.1446 13.4389 17.1446Z" fill="#6D6D6D" stroke="#7E7E7E" stroke-width="1.5" stroke-linecap="round" stroke-linejoin="round"/>
<path d="M5.59894 7.5945L11.1989 4.08078" stroke="#7E7E7E" stroke-width="1.5" stroke-linecap="round" stroke-linejoin="round"/>
<path d="M11.1989 13.9191L5.59894 10.4054" stroke="#7E7E7E" stroke-width="1.5" stroke-linecap="round" stroke-linejoin="round"/>
</svg>
