<svg width="31" height="29" viewBox="0 0 31 29" fill="none" xmlns="http://www.w3.org/2000/svg">
<path d="M15.9016 28.394C24.1361 28.394 30.8114 22.0728 30.8114 14.2751C30.8114 6.47744 24.1361 0.156189 15.9016 0.156189C7.66716 0.156189 0.991821 6.47744 0.991821 14.2751C0.991821 22.0728 7.66716 28.394 15.9016 28.394Z" fill="#3772FF"/>
<path d="M8.95515 11.8364C10.3625 11.8364 11.6476 11.8364 13.0183 11.8364C12.579 11.225 12.192 10.6664 11.7764 10.1277C11.7146 10.0468 11.5185 10.0336 11.3844 10.0328C10.2516 10.0254 9.11916 10.0402 7.98711 10.0171C7.8111 10.0138 7.58745 9.89168 7.47508 9.75803C7.16234 9.38347 6.89542 8.97257 6.57068 8.52042C6.74996 8.50723 6.87106 8.48991 6.99215 8.48991C8.73478 8.48826 10.4774 8.49484 12.2193 8.4833C12.4997 8.48165 12.6626 8.56746 12.8193 8.78858C13.8216 10.2027 14.8391 11.6079 15.8846 13.0608C15.9838 12.9445 16.0686 12.8603 16.1366 12.7654C17.0941 11.437 18.0436 10.1046 19.0116 8.78362C19.1109 8.64832 19.3156 8.50145 19.4735 8.49979C21.303 8.47999 23.1322 8.48743 24.9617 8.48909C25.029 8.48909 25.0959 8.50641 25.2319 8.52455C24.8773 9.0204 24.5653 9.47834 24.2228 9.91479C24.1584 9.99729 23.97 10.0229 23.8395 10.0237C22.7067 10.032 21.5743 10.0361 20.4415 10.0229C20.18 10.0196 20.0208 10.0922 19.8786 10.3059C19.5491 10.8034 19.1876 11.2819 18.7905 11.8364C20.1575 11.8364 21.4488 11.8364 22.8478 11.8364C22.4612 12.3785 22.143 12.8463 21.7936 13.2927C21.7292 13.3743 21.5383 13.3958 21.4052 13.3966C20.331 13.4057 19.2556 13.4172 18.1821 13.3958C17.8112 13.3883 17.5785 13.4824 17.3683 13.7902C16.8926 14.489 16.8788 14.4717 17.3683 15.1309C17.8443 15.7712 18.3138 16.4164 18.7676 17.0715C19.5807 18.2447 19.5189 19.7736 18.6302 20.8553C17.7188 21.965 16.194 22.4081 14.8078 21.9658C13.4223 21.5236 12.4666 20.2967 12.4571 18.9007C12.4517 18.2134 12.6582 17.5756 13.0808 17.003C13.6299 16.2596 14.1561 15.5014 14.7085 14.7604C14.866 14.5492 14.8409 14.4081 14.7198 14.1779C14.3878 13.5468 13.9154 13.3223 13.1626 13.3834C12.2549 13.4568 11.3349 13.4148 10.4199 13.39C10.2414 13.385 10.013 13.2712 9.90138 13.1367C9.58355 12.7539 9.31153 12.3339 8.95515 11.8364ZM15.9657 15.8702C15.8871 15.9263 15.8446 15.9436 15.8227 15.9741C15.3304 16.6532 14.8234 17.3231 14.3547 18.017C13.899 18.6903 14.0481 19.5731 14.6681 20.1242C15.2853 20.6721 16.2017 20.7398 16.9137 20.2884C17.5959 19.8561 17.9574 18.9832 17.581 18.3C17.1173 17.4576 16.5144 16.6837 15.9657 15.8702Z" fill="white"/>
</svg>
