<svg width="92" height="33" viewBox="0 0 92 33" fill="none" xmlns="http://www.w3.org/2000/svg">
<rect x="33.0394" y="0.779076" width="58.1912" height="25.8627" rx="12.9314" fill="#353945"/>
<g filter="url(#filter0_d_10206_256)">
<circle cx="76.2072" cy="13.7111" r="9.11666" fill="#3772FF"/>
</g>
<path d="M52.8865 14.8417C52.3801 14.9677 51.8738 15.0307 51.3674 15.0307C48.2028 15.0307 45.6711 12.5115 45.6711 9.36257C45.6711 8.85873 45.7344 8.3549 45.861 7.85107C45.9243 7.66213 45.861 7.41022 45.6711 7.22128C45.4812 7.03235 45.2913 6.96937 45.0382 7.03235C42.0634 7.91405 39.9747 10.6851 39.9747 13.7711C39.9747 17.6128 43.0761 20.6988 46.9369 20.6988C50.0383 20.6988 52.8232 18.6205 53.646 15.5975C53.7093 15.4085 53.646 15.1566 53.4561 14.9677C53.3295 14.8417 53.0763 14.7788 52.8865 14.8417Z" fill="#808191"/>
<path d="M48.2029 8.10364H48.8358V8.73343C48.8358 9.1113 49.089 9.36322 49.4687 9.36322C49.8485 9.36322 50.1017 9.1113 50.1017 8.73343V8.10364H50.7346C51.1143 8.10364 51.3675 7.85172 51.3675 7.47385C51.3675 7.09597 51.1143 6.84406 50.7346 6.84406H50.1017V6.21427C50.1017 5.8364 49.8485 5.58448 49.4687 5.58448C49.089 5.58448 48.8358 5.8364 48.8358 6.21427V6.84406H48.2029C47.8231 6.84406 47.5699 7.09597 47.5699 7.47385C47.5699 7.85172 47.8231 8.10364 48.2029 8.10364Z" fill="#808191"/>
<path d="M54.5329 10.6221H53.9V9.99233C53.9 9.61446 53.6468 9.36254 53.2671 9.36254C52.8873 9.36254 52.6341 9.61446 52.6341 9.99233V10.6221H52.0012C51.6215 10.6221 51.3683 10.874 51.3683 11.2519C51.3683 11.6298 51.6215 11.8817 52.0012 11.8817H52.6341V12.5115C52.6341 12.8894 52.8873 13.1413 53.2671 13.1413C53.6468 13.1413 53.9 12.8894 53.9 12.5115V11.8817H54.5329C54.9127 11.8817 55.1659 11.6298 55.1659 11.2519C55.1659 10.874 54.9127 10.6221 54.5329 10.6221Z" fill="#808191"/>
<path d="M10.3839 3.11632C4.83437 3.11632 0.340454 7.8338 0.340454 13.6464C0.340454 19.459 4.83437 24.1765 10.3839 24.1765C15.9435 24.1765 20.4475 19.459 20.4475 13.6464C20.4475 7.8338 15.9435 3.11632 10.3839 3.11632ZM17.351 9.43437H14.3852C14.0635 8.11811 13.601 6.8545 12.9978 5.68566C14.8477 6.34906 16.3858 7.69691 17.351 9.43437ZM10.394 5.26446C11.2284 6.52807 11.8819 7.92857 12.3142 9.43437H8.47373C8.90603 7.92857 9.55951 6.52807 10.394 5.26446ZM2.61254 15.7524C2.45169 15.0785 2.35115 14.373 2.35115 13.6464C2.35115 12.9198 2.45169 12.2143 2.61254 11.5404H6.01063C5.9302 12.2354 5.86988 12.9304 5.86988 13.6464C5.86988 14.3625 5.9302 15.0574 6.01063 15.7524H2.61254ZM3.43693 17.8584H6.40271C6.72443 19.1747 7.18689 20.4383 7.7901 21.6072C5.94025 20.9438 4.40207 19.6064 3.43693 17.8584ZM6.40271 9.43437H3.43693C4.40207 7.68638 5.94025 6.34906 7.7901 5.68566C7.18689 6.8545 6.72443 8.11811 6.40271 9.43437ZM10.394 22.0284C9.55951 20.7647 8.90603 19.3642 8.47373 17.8584H12.3142C11.8819 19.3642 11.2284 20.7647 10.394 22.0284ZM12.7465 15.7524H8.04143C7.95095 15.0574 7.88058 14.3625 7.88058 13.6464C7.88058 12.9304 7.95095 12.2248 8.04143 11.5404H12.7465C12.837 12.2248 12.9073 12.9304 12.9073 13.6464C12.9073 14.3625 12.837 15.0574 12.7465 15.7524ZM12.9978 21.6072C13.601 20.4383 14.0635 19.1747 14.3852 17.8584H17.351C16.3858 19.5959 14.8477 20.9438 12.9978 21.6072ZM14.7773 15.7524C14.8577 15.0574 14.918 14.3625 14.918 13.6464C14.918 12.9304 14.8577 12.2354 14.7773 11.5404H18.1754C18.3362 12.2143 18.4368 12.9198 18.4368 13.6464C18.4368 14.373 18.3362 15.0785 18.1754 15.7524H14.7773Z" fill="#808191"/>
<defs>
<filter id="filter0_d_10206_256" x="60.6248" y="1.36156" width="31.1647" height="31.1647" filterUnits="userSpaceOnUse" color-interpolation-filters="sRGB">
<feFlood flood-opacity="0" result="BackgroundImageFix"/>
<feColorMatrix in="SourceAlpha" type="matrix" values="0 0 0 0 0 0 0 0 0 0 0 0 0 0 0 0 0 0 127 0" result="hardAlpha"/>
<feOffset dy="3.23284"/>
<feGaussianBlur stdDeviation="3.23284"/>
<feColorMatrix type="matrix" values="0 0 0 0 0 0 0 0 0 0 0 0 0 0 0 0 0 0 0.1 0"/>
<feBlend mode="normal" in2="BackgroundImageFix" result="effect1_dropShadow_10206_256"/>
<feBlend mode="normal" in="SourceGraphic" in2="effect1_dropShadow_10206_256" result="shape"/>
</filter>
</defs>
</svg>
